<svg width="127" height="127" viewBox="0 0 127 127" fill="none" xmlns="http://www.w3.org/2000/svg">
    <path d="M29.3687 93.2657C34.9249 89.3851 40.4371 86.4086 45.9051 84.336C51.3732 82.2634 57.2381 81.2271 63.4999 81.2271C69.7617 81.2271 75.6487 82.2634 81.1609 84.336C86.673 86.4086 92.2072 89.3851 97.7635 93.2657C101.644 88.5032 104.4 83.6966 106.032 78.8459C107.663 73.9952 108.479 68.8799 108.479 63.5C108.479 50.7118 104.18 40.0183 95.5807 31.4193C86.9817 22.8204 76.2881 18.5209 63.4999 18.5209C50.7117 18.5209 40.0182 22.8204 31.4192 31.4193C22.8202 40.0183 18.5208 50.7118 18.5208 63.5C18.5208 68.8799 19.3586 73.9952 21.0343 78.8459C22.71 83.6966 25.4881 88.5032 29.3687 93.2657ZM63.4753 67.4688C58.3764 67.4688 54.0852 65.7188 50.6015 62.2187C47.1178 58.7186 45.376 54.4191 45.376 49.3202C45.376 44.2214 47.126 39.9301 50.6261 36.4464C54.1262 32.9627 58.4257 31.2209 63.5245 31.2209C68.6234 31.2209 72.9147 32.9709 76.3984 36.471C79.882 39.9711 81.6239 44.2706 81.6239 49.3694C81.6239 54.4683 79.8738 58.7596 76.3738 62.2433C72.8737 65.727 68.5742 67.4688 63.4753 67.4688ZM63.5618 116.417C56.2886 116.417 49.4329 115.028 42.9947 112.25C36.5565 109.471 30.9341 105.679 26.1275 100.872C21.3209 96.0658 17.5286 90.4538 14.7504 84.0362C11.9723 77.6187 10.5833 70.7615 10.5833 63.4649C10.5833 56.1682 11.9723 49.3228 14.7504 42.9287C17.5286 36.5346 21.3209 30.9342 26.1275 26.1276C30.9341 21.321 36.5462 17.5287 42.9638 14.7506C49.3813 11.9724 56.2384 10.5834 63.5351 10.5834C70.8318 10.5834 77.6772 11.9724 84.0713 14.7506C90.4654 17.5287 96.0657 21.321 100.872 26.1276C105.679 30.9342 109.471 36.536 112.249 42.9329C115.028 49.3298 116.417 56.1649 116.417 63.4381C116.417 70.7113 115.028 77.5671 112.249 84.0053C109.471 90.4435 105.679 96.0658 100.872 100.872C96.0657 105.679 90.464 109.471 84.067 112.25C77.6701 115.028 70.8351 116.417 63.5618 116.417ZM63.4999 108.479C68.3506 108.479 73.0911 107.774 77.7213 106.363C82.3515 104.951 86.9156 102.482 91.4135 98.9542C86.9156 95.7792 82.3294 93.3539 77.6551 91.6782C72.9808 90.0025 68.2624 89.1646 63.4999 89.1646C58.7374 89.1646 54.019 90.0025 49.3447 91.6782C44.6704 93.3539 40.0843 95.7792 35.5864 98.9542C40.0843 102.482 44.6484 104.951 49.2786 106.363C53.9088 107.774 58.6492 108.479 63.4999 108.479ZM63.4999 59.5313C66.4985 59.5313 68.9459 58.5832 70.8421 56.687C72.7383 54.7908 73.6864 52.3434 73.6864 49.3448C73.6864 46.3462 72.7383 43.8988 70.8421 42.0026C68.9459 40.1065 66.4985 39.1584 63.4999 39.1584C60.5013 39.1584 58.0539 40.1065 56.1577 42.0026C54.2616 43.8988 53.3135 46.3462 53.3135 49.3448C53.3135 52.3434 54.2616 54.7908 56.1577 56.687C58.0539 58.5832 60.5013 59.5313 63.4999 59.5313Z" fill="#3D4B5F"/>
    </svg>
    