<svg width="421" height="426" viewBox="0 0 421 426" fill="none" xmlns="http://www.w3.org/2000/svg">
    <g clip-path="url(#clip0_152_63)">
    <path d="M94.4237 71.1425L91.2141 87.9773L107.216 92.4843L105.228 74.5112L94.4237 71.1425Z" fill="#A0616A"/>
    <path d="M285.688 191.043H120.657C101.943 191.043 86.7717 206.2 86.7717 224.897V384.774C86.7717 403.471 101.943 418.628 120.657 418.628H285.688C304.403 418.628 319.574 403.471 319.574 384.774V224.897C319.574 206.2 304.403 191.043 285.688 191.043Z" fill="white"/>
    <path d="M285.688 419.43H120.657C101.53 419.43 85.9692 403.883 85.9692 384.774V224.897C85.9692 205.788 101.53 190.241 120.657 190.241H285.688C304.815 190.241 320.376 205.788 320.376 224.897V384.774C320.376 403.883 304.815 419.43 285.688 419.43ZM120.657 191.845C102.415 191.845 87.5741 206.672 87.5741 224.897V384.774C87.5741 403 102.415 417.826 120.657 417.826H285.688C303.93 417.826 318.771 403 318.771 384.774V224.897C318.771 206.672 303.93 191.845 285.688 191.845L120.657 191.845Z" fill="#3F3D56"/>
    <path d="M297.642 260.355H231.309C228.495 260.355 226.206 258.069 226.206 255.258C226.206 252.447 228.495 250.16 231.309 250.16H297.642C300.456 250.16 302.745 252.447 302.745 255.258C302.745 258.069 300.456 260.355 297.642 260.355Z" fill="#FFB400"/>
    <path d="M235.413 300.444H170.933C169.308 300.444 167.985 299.123 167.985 297.499C167.985 295.875 169.308 294.554 170.933 294.554H235.413C237.038 294.554 238.36 295.875 238.36 297.499C238.36 299.123 237.038 300.444 235.413 300.444Z" fill="#FFB400"/>
    <path d="M144.278 201.992H107.465C107.328 201.992 107.216 202.103 107.216 202.241V206.522C107.216 206.659 107.328 206.771 107.465 206.771H144.278C144.415 206.771 144.527 206.659 144.527 206.522V202.241C144.527 202.103 144.415 201.992 144.278 201.992Z" fill="#FFB400"/>
    <path d="M268.274 206.771C270.388 206.771 272.101 205.059 272.101 202.948C272.101 200.836 270.388 199.124 268.274 199.124C266.161 199.124 264.448 200.836 264.448 202.948C264.448 205.059 266.161 206.771 268.274 206.771Z" fill="#3F3D56"/>
    <path d="M278.798 206.771C280.911 206.771 282.625 205.059 282.625 202.948C282.625 200.836 280.911 199.124 278.798 199.124C276.684 199.124 274.971 200.836 274.971 202.948C274.971 205.059 276.684 206.771 278.798 206.771Z" fill="#3F3D56"/>
    <path d="M289.321 206.771C291.435 206.771 293.148 205.059 293.148 202.948C293.148 200.836 291.435 199.124 289.321 199.124C287.208 199.124 285.495 200.836 285.495 202.948C285.495 205.059 287.208 206.771 289.321 206.771Z" fill="#3F3D56"/>
    <path d="M120.256 316.211C120.256 316.74 120.681 317.165 121.211 317.165H285.135C285.664 317.165 286.09 316.74 286.09 316.211C286.09 315.682 285.664 315.257 285.135 315.257H121.211C120.681 315.257 120.256 315.682 120.256 316.211Z" fill="#3F3D56"/>
    <path d="M170.25 80.9012C173.739 78.0203 178.056 77.4841 179.891 79.7032C181.726 81.9224 180.384 86.056 176.892 88.9374C175.513 90.1075 173.874 90.9308 172.111 91.3382L157.171 103.358L151.674 96.2332L166.987 85.1401C167.72 83.4871 168.839 82.0335 170.25 80.9012Z" fill="#A0616A"/>
    <path d="M83.8942 108.021C83.8866 107.49 83.8916 102.853 87.3276 99.9223C91.2746 96.5557 96.844 97.9184 98.7974 98.3963C103.31 99.5003 103.68 101.434 107.918 103.421C115.846 107.139 105.912 105.236 110.63 104.044C112.263 103.631 135.755 102.004 141.602 98.4079C152.975 91.4146 160.725 87.1738 160.725 87.1738L165.79 97.2959C165.79 97.2959 158.465 107.472 148.156 115.01C137.581 122.743 132.293 126.61 124.257 128.103C123.565 128.232 106.546 131.135 92.8388 120.904C89.7121 118.57 83.9835 114.294 83.8942 108.021Z" fill="#E6E6E6"/>
    <path d="M99.6083 82.2786C109.355 82.2786 117.255 74.3851 117.255 64.6479C117.255 54.9108 109.355 47.0173 99.6083 47.0173C89.8621 47.0173 81.9612 54.9108 81.9612 64.6479C81.9612 74.3851 89.8621 82.2786 99.6083 82.2786Z" fill="#A0616A"/>
    <path d="M238 183.864L219.533 166L210 175.397L223.759 192.525L237.406 194L238 183.864Z" fill="#A0616A"/>
    <path d="M134.039 148.245C135.102 148.333 138.48 149.009 141.709 147.234C143.912 146.023 145.043 144.222 145.424 143.649C150.16 136.544 168.335 125.464 184.647 124.782C188.341 124.628 190.772 125.055 192.982 126.206C196.116 127.838 197.367 130.176 201.343 135.652C203.519 138.648 205.925 141.47 208.127 144.446C221.015 161.871 225.901 163.239 225.402 168.826C224.848 175.024 218.157 180.904 213.71 180.225C211.889 179.947 211.183 178.682 208.75 176.121C201.616 168.611 198.664 169.999 193.585 164.247C187.654 157.531 188.431 151.963 185.337 151.748C182.468 151.548 181.248 156.298 175.123 162.609C172.32 165.496 170.324 166.821 164.243 171.035C140.564 187.448 140.186 188.601 135.407 189.91C133.316 190.483 118.477 194.547 113.19 188.079C104.918 177.957 124.461 147.45 134.039 148.245Z" fill="#394557"/>
    <path d="M232.258 187.297C233.594 186.698 235.157 185.997 235.66 184.384C236 183.293 235.804 181.948 235.101 181.019C234.29 179.946 233.088 179.805 233.137 179.615C233.211 179.326 236.051 179.439 239.169 180.54C239.757 180.748 242.423 181.721 245.813 184.365C248.529 186.484 248.164 186.909 249.867 188.13C255.096 191.88 260 188.925 262.83 192.442C263.921 193.799 264.387 195.726 263.928 197.284C263.005 200.413 258.517 201.49 256.064 202.046C250.158 203.385 245.687 202.292 241.018 201.506C225.141 198.833 216.22 201.267 215.026 197.593C214.801 196.897 215.168 196.956 216.392 191.852C217.6 186.815 217.56 185.432 218.589 185.028C220.138 184.421 221.178 187.183 225.08 188.128C228.538 188.966 231.392 187.686 232.258 187.297Z" fill="#2F2E41"/>
    <path d="M205.503 243.899L200.912 218.324L187.654 221.151L188.841 243.493L199.092 252.298L205.503 243.899Z" fill="#A0616A"/>
    <path d="M139.224 156.841C140.054 157.511 142.469 159.965 146.139 160.308C148.643 160.542 150.59 159.686 151.228 159.426C159.14 156.203 180.406 157.232 194.287 165.819C197.43 167.763 199.202 169.481 200.384 171.673C202.059 174.782 201.781 177.418 201.993 184.18C202.109 187.879 202.515 191.565 202.663 195.262C203.534 216.911 206.808 220.784 203.255 225.127C199.312 229.944 190.471 231.056 187.173 228C185.822 226.748 185.95 225.306 185.376 221.821C183.693 211.605 180.471 211.097 179.501 203.488C178.369 194.604 182.141 190.432 179.702 188.518C177.44 186.744 173.761 189.99 165.146 191.775C161.203 192.592 158.807 192.568 151.407 192.644C122.589 192.94 121.628 193.683 116.938 192.085C114.886 191.386 100.322 186.424 99.5835 178.106C98.4279 165.089 131.746 150.81 139.224 156.841Z" fill="#394557"/>
    <path d="M198.545 244.257C199.988 244.511 201.675 244.808 202.998 243.756C203.893 243.044 204.486 241.821 204.427 240.657C204.358 239.314 203.444 238.524 203.591 238.394C203.815 238.196 206.101 239.883 208.062 242.543C208.432 243.045 210.091 245.346 211.41 249.436C212.467 252.713 211.925 252.859 212.648 254.826C214.867 260.862 220.586 261.168 220.951 265.665C221.091 267.401 220.393 269.257 219.137 270.288C216.615 272.36 212.297 270.733 209.955 269.817C204.314 267.611 201.229 264.198 197.808 260.929C186.173 249.81 177.423 246.82 178.501 243.109C178.705 242.407 178.975 242.662 182.857 239.126C186.688 235.635 187.433 234.468 188.511 234.712C190.134 235.078 189.442 237.947 192.139 240.918C194.53 243.551 197.61 244.093 198.545 244.257Z" fill="#2F2E41"/>
    <path d="M102.014 68.0184C102.701 65.5632 101.839 64.6684 102.718 63.5664C102.718 63.5663 103.072 63.1229 106.236 61.9261C105.303 56.5146 106.002 55.5995 106.002 55.5995C106.807 54.5449 108.421 54.2899 109.52 54.4279C111.843 54.7197 112.255 56.8182 113.741 56.7711C115.795 56.706 118.259 52.5986 117.494 49.0385C116.87 46.1346 114.181 43.9779 113.507 44.3522C112.838 44.7232 110.432 43.0871 109.52 43.4149C108.896 43.6388 105.963 43.3409 105.298 43.6492C104.572 43.9859 102.491 46.0821 102.293 45.818C100.91 43.9826 100.94 43.3418 100.138 42.9462C98.7173 42.2453 97.1726 43.5408 94.5092 44.8208C89.0291 47.4543 87.4244 45.8834 84.8931 48.1013C83.6144 49.2216 82.9288 51.3628 81.6096 55.5995C79.7647 61.5244 78.8423 64.4869 79.7333 67.3155C80.6419 70.2001 81.98 69.5723 83.955 73.6421C86.1534 78.1725 85.3957 80.8058 87.473 81.8433C89.0785 82.6451 91.6587 82.1348 92.6329 80.6717C94.3008 78.1667 89.9898 74.7781 91.4602 70.8303C92.3628 68.4069 95.1471 66.5695 96.8546 67.0811C98.7852 67.6597 98.9274 71.1181 100.138 71.0646C101.175 71.0188 101.895 68.4463 102.014 68.0184Z" fill="#2F2E41"/>
    <path d="M88.6456 84.8894C92.2569 80.8441 106.966 85.0311 108.347 91.4503C108.915 94.0907 106.818 95.2055 107.409 98.2456C108.272 102.692 113.161 102.389 116.79 106.915C121.942 113.342 116.635 119.623 122.419 130.347C123.655 132.639 124.697 134.57 126.875 136.44C131.874 140.729 136.526 139.258 139.071 143.235C140.975 146.209 140.193 149.875 140.009 150.733C139.258 154.254 137.222 155.112 135.788 157.997C133.401 162.797 136.103 166.321 136.257 172.056C136.449 179.232 132.632 189.179 124.999 192.442C116.424 196.108 106.081 190.036 101.076 184.007C98.0897 180.409 97.2228 177.09 95.9163 172.994C90.0772 154.686 86.7784 156.342 82.3131 141.829C77.2084 125.239 76.2049 105.802 82.3131 99.6515C83.1227 98.8363 85.3508 96.9521 86.7693 93.5592C88.6781 88.9937 87.0291 86.7002 88.6456 84.8894Z" fill="#E6E6E6"/>
    <path d="M142.005 179.058C144.805 182.612 145.239 186.936 142.975 188.716C140.711 190.496 136.606 189.057 133.806 185.501C132.668 184.096 131.883 182.44 131.517 180.669L119.844 165.461L125.876 160.865L137.841 175.698C139.478 176.47 140.906 177.622 142.005 179.058Z" fill="#A0616A"/>
    <path d="M99.2561 100.306C99.7754 100.19 104.32 99.2491 107.893 102.012C111.997 105.185 111.798 110.91 111.728 112.918C111.567 117.557 109.748 118.314 108.665 122.864C106.64 131.376 110.497 139.288 112.628 143.658C113.365 145.171 115.735 149.8 120.451 154.786C129.624 164.482 137.809 169.585 137.809 169.585L129.016 177.393C129.016 177.393 115.01 173.128 105.52 164.583C95.7851 155.818 80.8145 124.806 77.711 117.251C77.4437 116.601 81.2295 127.177 88.458 111.683C90.1068 108.149 93.1278 101.674 99.2561 100.306Z" fill="#E6E6E6"/>
    <path d="M220.729 338.09C215.14 338.945 211.052 342.52 211.597 346.073C212.143 349.627 217.116 351.813 222.706 350.956C224.944 350.644 227.075 349.802 228.92 348.499L252.555 344.574L250.977 335.24L227.396 338.574C225.244 337.883 222.958 337.717 220.729 338.09Z" fill="#FFB6B6"/>
    <path d="M322.574 308.996L313.41 328.424L267.34 343.919L229.111 345.956L228.154 336.783L269.585 328.128L312.099 308.057L322.574 308.996Z" fill="#E6E6E6"/>
    <path d="M237.604 382.766L229.377 403.557L218.729 396.304L225.021 374.546L237.604 382.766Z" fill="#FFB6B6"/>
    <path d="M203.242 375.029L181.463 395.821L190.174 405.008L212.437 387.601L203.242 375.029Z" fill="#FFB6B6"/>
    <path d="M326.656 307.335L326.414 305.643L320.848 294.764L302.457 299.599L305.845 314.588L326.656 307.335Z" fill="#FFB6B6"/>
    <path d="M318.913 379.864L319.478 387.127C319.478 387.127 321.817 417.58 302.941 419.997C284.066 422.415 275.839 424.833 264.707 405.975L247.284 375.029L237.107 387.127L223.569 376.48C223.569 376.48 233.248 338.765 240.992 337.314C241.96 337.133 242.928 337.042 243.881 337.022C250.292 336.889 256.335 340.022 260.17 345.155L282.13 374.546L290.116 370.919L318.913 379.864Z" fill="#2F2E41"/>
    <path d="M214.373 402.59L218.729 394.37L231.312 403.074C231.312 403.074 234.216 413.711 229.86 415.162C225.505 416.613 213.405 414.678 213.405 414.678C213.405 414.678 191.142 419.514 190.658 415.162C190.174 410.81 200.822 409.843 200.822 409.843L214.373 402.59Z" fill="#2F2E41"/>
    <path d="M261.803 396.788L228.167 375.614L210.985 390.986L199.37 377.447C199.37 377.447 220.665 346.018 226.957 344.567C233.248 343.116 243.412 342.149 243.412 342.149L274.387 370.677L261.803 396.788Z" fill="#2F2E41"/>
    <path d="M180.979 393.887L192.11 405.975L190.642 407.229C190.642 407.229 187.754 419.795 180.979 415.545C174.203 411.294 173.719 410.327 173.719 410.327C173.719 410.327 154.36 414.678 152.424 406.942C150.488 399.205 155.812 400.656 155.812 400.656L160.646 403.557L180.979 393.887Z" fill="#2F2E41"/>
    <path d="M308.265 304.918C316.819 304.918 323.752 297.99 323.752 289.445C323.752 280.899 316.819 273.972 308.265 273.972C299.712 273.972 292.778 280.899 292.778 289.445C292.778 297.99 299.712 304.918 308.265 304.918Z" fill="#FFB6B6"/>
    <path d="M304.635 311.445L326.898 304.676C326.898 304.676 335.61 324.984 334.158 334.171C332.706 343.358 319.478 387.127 319.478 387.127L290.116 370.919C290.116 370.919 289.632 361.249 288.18 356.897C286.728 352.545 282.13 339.248 292.294 328.127C302.457 317.006 304.635 311.445 304.635 311.445Z" fill="#E6E6E6"/>
    <path d="M255.636 412.977C252.013 417.314 251.315 422.697 254.078 425C256.841 427.303 262.017 425.654 265.641 421.316C267.112 419.602 268.151 417.562 268.672 415.365L283.791 396.797L276.426 390.842L260.955 408.932C258.884 409.837 257.06 411.224 255.636 412.977Z" fill="#FFB6B6"/>
    <path d="M321.712 321.201L326.974 342.025L301.219 383.213L274.927 409.613L266.406 402.549L292.921 369.588L313.02 327.118L321.712 321.201Z" fill="#E6E6E6"/>
    <path d="M293.988 286.785C297.959 286.776 298.185 286.802 298.827 286.785C303.754 286.656 305.042 284.719 307.539 284.851C311.996 285.087 306.113 307.411 303.667 317.731C301.268 327.853 309.376 336.923 309.959 337.556C318.189 346.498 332.645 348.133 335.126 344.325C337.134 341.243 330.018 336.556 331.738 329.819C333.419 323.234 341.183 323.935 343.353 317.731C345.626 311.234 337.988 307.957 333.19 292.104C330.434 283 330.921 281.303 328.35 275.664C321.476 260.591 287.785 267.009 291.568 280.983C292.299 283.686 290.352 286.794 293.988 286.785Z" fill="#2F2E41"/>
    <path d="M342.53 103.062H179.76C175.157 103.062 171.413 99.3206 171.413 94.7221V8.34008C171.413 3.74161 175.157 0 179.76 0H342.53C347.133 0 350.877 3.74161 350.877 8.34008V94.7221C350.877 99.3206 347.133 103.062 342.53 103.062Z" fill="white"/>
    <path d="M342.53 103.062H179.76C175.157 103.062 171.413 99.3206 171.413 94.7221V8.34008C171.413 3.74161 175.157 0 179.76 0H342.53C347.133 0 350.877 3.74161 350.877 8.34008V94.7221C350.877 99.3206 347.133 103.062 342.53 103.062ZM179.76 1.39273C175.926 1.39273 172.807 4.50938 172.807 8.34008V94.7221C172.807 98.5528 175.926 101.669 179.76 101.669H342.53C346.364 101.669 349.483 98.5528 349.483 94.7221V8.34008C349.483 4.50938 346.364 1.39273 342.53 1.39273H179.76Z" fill="#3F3D56"/>
    <path d="M329.967 10.4455C331.122 10.4455 332.058 9.51014 332.058 8.35637C332.058 7.20259 331.122 6.26727 329.967 6.26727C328.812 6.26727 327.876 7.20259 327.876 8.35637C327.876 9.51014 328.812 10.4455 329.967 10.4455Z" fill="#3F3D56"/>
    <path d="M335.543 10.4455C336.698 10.4455 337.634 9.51014 337.634 8.35637C337.634 7.20259 336.698 6.26727 335.543 6.26727C334.388 6.26727 333.452 7.20259 333.452 8.35637C333.452 9.51014 334.388 10.4455 335.543 10.4455Z" fill="#3F3D56"/>
    <path d="M341.119 10.4455C342.274 10.4455 343.21 9.51014 343.21 8.35637C343.21 7.20259 342.274 6.26727 341.119 6.26727C339.964 6.26727 339.028 7.20259 339.028 8.35637C339.028 9.51014 339.964 10.4455 341.119 10.4455Z" fill="#3F3D56"/>
    <path d="M183.262 42.1301C182.685 42.1301 182.216 42.5987 182.216 43.1747C182.216 43.4555 182.325 43.7153 182.522 43.9071C182.721 44.1104 182.981 44.2192 183.262 44.2192H339.725C340.302 44.2192 340.771 43.7507 340.771 43.1747C340.771 42.8938 340.662 42.634 340.465 42.4423C340.266 42.2389 340.006 42.1301 339.725 42.1301H183.262Z" fill="#E6E6E6"/>
    <path d="M320.209 41.782V44.5674H183.262C182.879 44.5674 182.53 44.4142 182.279 44.1566C182.021 43.9059 181.868 43.5577 181.868 43.1747C181.868 42.4087 182.495 41.782 183.262 41.782H320.209Z" fill="#FFB400"/>
    <path d="M337.983 36.5592H324.042C322.505 36.5592 321.254 35.31 321.254 33.7737C321.254 32.2375 322.505 30.9883 324.042 30.9883H337.983C339.52 30.9883 340.771 32.2375 340.771 33.7737C340.771 35.31 339.52 36.5592 337.983 36.5592Z" fill="#E6E6E6"/>
    <path d="M246.673 21.9356H184.307C182.77 21.9356 181.519 20.6863 181.519 19.1501C181.519 17.6139 182.77 16.3646 184.307 16.3646H246.673C248.211 16.3646 249.462 17.6139 249.462 19.1501C249.462 20.6863 248.211 21.9356 246.673 21.9356Z" fill="#E6E6E6"/>
    <path d="M183.262 73.4666C182.685 73.4666 182.216 73.9352 182.216 74.5112C182.216 74.792 182.325 75.0518 182.522 75.2436C182.721 75.4469 182.981 75.5557 183.262 75.5557H339.725C340.302 75.5557 340.771 75.0872 340.771 74.5112C340.771 74.2303 340.662 73.9705 340.465 73.7788C340.266 73.5754 340.006 73.4666 339.725 73.4666H183.262Z" fill="#E6E6E6"/>
    <path d="M266.539 73.1185V75.9039H183.262C182.879 75.9039 182.53 75.7507 182.279 75.4931C182.021 75.2424 181.868 74.8942 181.868 74.5112C181.868 73.7452 182.495 73.1185 183.262 73.1185H266.539Z" fill="#FFB400"/>
    <path d="M337.983 67.8957H324.042C322.505 67.8957 321.254 66.6465 321.254 65.1102C321.254 63.574 322.505 62.3248 324.042 62.3248H337.983C339.52 62.3248 340.771 63.574 340.771 65.1102C340.771 66.6465 339.52 67.8957 337.983 67.8957Z" fill="#E6E6E6"/>
    </g>
    <defs>
    <clipPath id="clip0_152_63">
    <rect width="421" height="426" fill="white"/>
    </clipPath>
    </defs>
    </svg>
    