<svg width="118" height="50" viewBox="0 0 118 50" fill="none" xmlns="http://www.w3.org/2000/svg">
<path d="M33.2422 28.0586H41.4844C39.9414 30.0508 37.3633 30.2852 33.3203 30.2852C29.1211 30.2266 25.5664 29.4844 25.625 25.168V24.5234C25.5664 20.2461 29.1211 19.4648 33.3203 19.4062C34.8242 19.4062 36.1914 19.5625 37.4023 19.875C38.6133 20.1875 39.5508 20.7734 40.1953 21.6523H51.0742C49.9219 13.5664 42.4219 11.0859 33.3203 11.0859C23.4375 11.1055 15.3516 13.957 15.3906 23.8984V25.8125C15.3516 35.7344 23.4375 38.5859 33.3203 38.625C37.7734 38.625 42.4023 37.5508 45.4492 34.543L45.957 38.625H51.0742V23.5664H33.2422V28.0586ZM55.7812 11.7305V37.9805H66.0156V11.7305H55.7812ZM71.4453 38.0195H81.6797V30.9688H100.898V23.293H81.6797V20.0898H103.457V11.7695H71.4453V38.0195Z" fill="black"/>
<rect x="2.5" y="2.5" width="113" height="45" rx="7.5" stroke="black" stroke-width="5"/>
</svg>
